# Blender v2.77 (sub 0) OBJ File: ''
# www.blender.org
o Cube.002
v -4.190394 0.000000 -2.377002
v -4.190394 1.000000 -2.377002
v -4.190394 0.000000 -3.377002
v -4.190394 1.000000 -3.377002
v -3.190394 0.000000 -2.377002
v -3.190394 1.000000 -2.377002
v -3.190394 0.000000 -3.377002
v -3.190394 1.000000 -3.377002
v -0.033052 0.000000 -2.135997
v -0.033052 1.000000 -2.135997
v -0.033052 0.000000 -3.135997
v -0.033052 1.000000 -3.135997
v 0.966948 0.000000 -2.135997
v 0.966948 1.000000 -2.135997
v 0.966948 0.000000 -3.135997
v 0.966948 1.000000 -3.135997
v 2.000431 0.000000 0.756068
v 2.000431 1.000000 0.756068
v 2.000431 0.000000 -0.243932
v 2.000431 1.000000 -0.243932
v 3.000431 0.000000 0.756068
v 3.000431 1.000000 0.756068
v 3.000431 0.000000 -0.243932
v 3.000431 1.000000 -0.243932
v 0.599587 0.000000 3.467379
v 0.599587 1.000000 3.467379
v 0.599587 0.000000 2.467379
v 0.599587 1.000000 2.467379
v 1.599587 0.000000 3.467379
v 1.599587 1.000000 3.467379
v 1.599587 0.000000 2.467379
v 1.599587 1.000000 2.467379
v -1.735152 0.000000 0.891634
v -1.735152 1.000000 0.891634
v -1.735152 0.000000 -0.108366
v -1.735152 1.000000 -0.108366
v -0.735152 0.000000 0.891634
v -0.735152 1.000000 0.891634
v -0.735152 0.000000 -0.108366
v -0.735152 1.000000 -0.108366
v -3.361938 0.000000 3.301687
v -3.361938 1.000000 3.301687
v -3.361938 0.000000 2.301687
v -3.361938 1.000000 2.301687
v -2.361938 0.000000 3.301687
v -2.361938 1.000000 3.301687
v -2.361938 0.000000 2.301687
v -2.361938 1.000000 2.301687
v -5.000000 0.000000 5.000000
v 5.000000 0.000000 5.000000
v -5.000000 0.000000 -5.000000
v 5.000000 0.000000 -5.000000
vt 0.0000 0.8333
vt 0.0000 0.0000
vt 0.8333 0.0000
vt 0.8333 0.8333
vt 0.5833 1.0000
vt 0.5833 0.9167
vt 0.6667 0.9167
vt 0.6667 1.0000
vt 0.9167 0.0000
vt 1.0000 0.0000
vt 1.0000 0.0833
vt 0.9167 0.0833
vt 0.9167 0.6667
vt 0.9167 0.5833
vt 1.0000 0.5833
vt 1.0000 0.6667
vt 0.0833 0.9167
vt 0.1667 0.9167
vt 0.1667 1.0000
vt 0.0833 1.0000
vt 0.9167 0.3333
vt 0.9167 0.2500
vt 1.0000 0.2500
vt 1.0000 0.3333
vt 0.4167 0.8333
vt 0.4167 0.9167
vt 0.3333 0.9167
vt 0.3333 0.8333
vt 0.3333 1.0000
vt 0.3333 0.9167
vt 0.4167 0.9167
vt 0.4167 1.0000
vt 0.9167 0.0833
vt 0.8333 0.0833
vt 0.8333 0.0000
vt 0.9167 0.0000
vt 0.9167 0.6667
vt 0.8333 0.6667
vt 0.8333 0.5833
vt 0.9167 0.5833
vt 0.8333 0.5000
vt 0.9167 0.5000
vt 0.9167 0.5833
vt 0.8333 0.2500
vt 0.8333 0.1667
vt 0.9167 0.1667
vt 0.9167 0.2500
vt 0.9167 0.0833
vt 0.9167 0.1667
vt 0.8333 0.1667
vt 0.8333 0.0833
vt 0.8333 0.4167
vt 0.8333 0.3333
vt 0.9167 0.3333
vt 0.9167 0.4167
vt 0.0000 0.9167
vt 0.0000 0.8333
vt 0.0833 0.8333
vt 0.0833 0.9167
vt 0.5833 0.9167
vt 0.5833 0.8333
vt 0.6667 0.8333
vt 0.6667 0.9167
vt 0.8333 0.4167
vt 0.9167 0.4167
vt 0.9167 0.5000
vt 0.8333 0.5000
vt 0.2500 1.0000
vt 0.2500 0.9167
vt 0.3333 0.9167
vt 0.3333 1.0000
vt 0.9167 0.1667
vt 1.0000 0.1667
vt 1.0000 0.2500
vt 0.9167 0.2500
vt 0.5000 0.9167
vt 0.5000 0.8333
vt 0.5833 0.8333
vt 0.5833 0.9167
vt 0.0833 1.0000
vt 0.0000 1.0000
vt 0.0000 0.9167
vt 0.0833 0.9167
vt 0.9167 0.3333
vt 0.8333 0.3333
vt 0.8333 0.2500
vt 0.9167 0.2500
vt 0.8333 0.8333
vt 0.9167 0.8333
vt 0.9167 0.9167
vt 0.8333 0.9167
vt 1.0000 0.5833
vt 0.9167 0.5833
vt 0.9167 0.5000
vt 1.0000 0.5000
vt 0.4167 0.9167
vt 0.5000 0.9167
vt 0.5000 1.0000
vt 0.4167 1.0000
vt 0.5000 1.0000
vt 0.5000 0.9167
vt 0.5833 0.9167
vt 0.5833 1.0000
vt 0.9167 0.6667
vt 0.9167 0.7500
vt 0.8333 0.7500
vt 0.8333 0.6667
vt 0.2500 0.9167
vt 0.2500 0.8333
vt 0.3333 0.8333
vt 0.3333 0.9167
vt 0.7500 0.8333
vt 0.8333 0.8333
vt 0.8333 0.9167
vt 0.7500 0.9167
vt 0.2500 1.0000
vt 0.1667 1.0000
vt 0.1667 0.9167
vt 0.2500 0.9167
vt 1.0000 0.4167
vt 0.9167 0.4167
vt 0.9167 0.3333
vt 1.0000 0.3333
vt 0.4167 0.9167
vt 0.4167 0.8333
vt 0.5000 0.8333
vt 0.5000 0.9167
vt 1.0000 0.4167
vt 1.0000 0.5000
vt 0.9167 0.5000
vt 0.9167 0.4167
vt 0.9167 0.1667
vt 0.9167 0.0833
vt 1.0000 0.0833
vt 1.0000 0.1667
vt 0.6667 0.8333
vt 0.7500 0.8333
vt 0.7500 0.9167
vt 0.6667 0.9167
vt 0.0833 0.9167
vt 0.0833 0.8333
vt 0.1667 0.8333
vt 0.1667 0.9167
vt 0.2500 0.8333
vt 0.2500 0.9167
vt 0.1667 0.9167
vt 0.1667 0.8333
vn 0.0000 1.0000 0.0000
vn -1.0000 0.0000 0.0000
vn 0.0000 0.0000 -1.0000
vn 1.0000 0.0000 0.0000
vn 0.0000 0.0000 1.0000
vn 0.0000 -1.0000 0.0000
s off
f 49/1/1 50/2/1 52/3/1 51/4/1
f 2/5/2 4/6/2 3/7/2 1/8/2
f 4/9/3 8/10/3 7/11/3 3/12/3
f 8/13/4 6/14/4 5/15/4 7/16/4
f 6/17/5 2/18/5 1/19/5 5/20/5
f 1/21/6 3/22/6 7/23/6 5/24/6
f 6/25/1 8/26/1 4/27/1 2/28/1
f 10/29/2 12/30/2 11/31/2 9/32/2
f 12/33/3 16/34/3 15/35/3 11/36/3
f 16/37/4 14/38/4 13/39/4 15/40/4
f 14/41/5 10/42/5 9/43/5 13/39/5
f 9/44/6 11/45/6 15/46/6 13/47/6
f 14/48/1 16/49/1 12/50/1 10/51/1
f 18/52/2 20/53/2 19/54/2 17/55/2
f 20/56/3 24/57/3 23/58/3 19/59/3
f 24/60/4 22/61/4 21/62/4 23/63/4
f 22/64/5 18/65/5 17/66/5 21/67/5
f 17/68/6 19/69/6 23/70/6 21/71/6
f 22/72/1 24/73/1 20/74/1 18/75/1
f 26/76/2 28/77/2 27/78/2 25/79/2
f 28/80/3 32/81/3 31/82/3 27/83/3
f 32/84/4 30/85/4 29/86/4 31/87/4
f 30/88/5 26/89/5 25/90/5 29/91/5
f 25/92/6 27/93/6 31/94/6 29/95/6
f 30/96/1 32/97/1 28/98/1 26/99/1
f 34/100/2 36/101/2 35/102/2 33/103/2
f 36/104/3 40/105/3 39/106/3 35/107/3
f 40/108/4 38/109/4 37/110/4 39/111/4
f 38/112/5 34/113/5 33/114/5 37/115/5
f 33/116/6 35/117/6 39/118/6 37/119/6
f 38/120/1 40/121/1 36/122/1 34/123/1
f 42/124/2 44/125/2 43/126/2 41/127/2
f 44/128/3 48/129/3 47/130/3 43/131/3
f 48/132/4 46/133/4 45/134/4 47/135/4
f 46/136/5 42/137/5 41/138/5 45/139/5
f 41/140/6 43/141/6 47/142/6 45/143/6
f 46/144/1 48/145/1 44/146/1 42/147/1
